<svg xmlns="http://www.w3.org/2000/svg" viewBox="0 0 24 24" role="img" aria-labelledby="title">
  <title>LinkedIn</title>
  <path fill="#0A66C2" d="M20.451 20.451h-3.553v-5.57c0-1.329-.024-3.039-1.853-3.039-1.854 0-2.137 1.447-2.137 2.944v5.665H9.355V9h3.413v1.561h.049c.475-.9 1.635-1.848 3.365-1.848 3.598 0 4.269 2.367 4.269 5.447v6.291zM5.337 7.434a2.06 2.06 0 1 1 0-4.121 2.06 2.06 0 0 1 0 4.121zM7.116 20.451H3.559V9h3.557v11.451zM22.225 0H1.771A1.77 1.77 0 0 0 0 1.771v20.458C0 23.207.793 24 1.771 24h20.451A1.78 1.78 0 0 0 24 22.229V1.771A1.78 1.78 0 0 0 22.225 0z"/>
</svg>



